<?xml version="1.0" encoding="UTF-8"?>
<svg width="60px" height="60px" viewBox="0 0 60 60" version="1.1" xmlns="http://www.w3.org/2000/svg" xmlns:xlink="http://www.w3.org/1999/xlink">
    <!-- Generator: Sketch 63.1 (92452) - https://sketch.com -->
    <title>Slice 1</title>
    <desc>Created with Sketch.</desc>
    <g id="Page-1" stroke="none" stroke-width="1" fill="none" fill-rule="evenodd">
        <g id="close" fill="#000000" fill-rule="nonzero">
            <path d="M34.242,30 L58.23,6.012 C59.402,4.841 59.402,2.941 58.23,1.77 C57.058,0.598 55.16,0.598 53.988,1.77 L30,25.758 L6.012,1.77 C4.841,0.598 2.941,0.598 1.77,1.77 C0.598,2.941 0.598,4.841 1.77,6.012 L25.758,30 L1.77,53.988 C0.598,55.159 0.598,57.059 1.77,58.23 C2.355,58.816 3.124,59.109 3.891,59.109 C4.658,59.109 5.426,58.816 6.012,58.23 L30,34.242 L53.988,58.23 C54.574,58.816 55.342,59.109 56.109,59.109 C56.876,59.109 57.644,58.816 58.23,58.23 C59.402,57.059 59.402,55.159 58.23,53.988 L34.242,30 Z" id="Path"></path>
        </g>
    </g>
</svg>