<?xml version="1.0" encoding="UTF-8"?>
<svg width="92px" height="76px" viewBox="0 0 92 76" version="1.1" xmlns="http://www.w3.org/2000/svg" xmlns:xlink="http://www.w3.org/1999/xlink">
    <!-- Generator: Sketch 63.1 (92452) - https://sketch.com -->
    <title>Slice 1</title>
    <desc>Created with Sketch.</desc>
    <g id="Page-1" stroke="none" stroke-width="1" fill="none" fill-rule="evenodd">
        <g id="hamburger" fill="#4B4B4B" fill-rule="nonzero">
            <path d="M83.73,75.72 L8.27,75.72 C4.20985208,75.5721626 0.994727137,72.2378385 0.994727137,68.175 C0.994727137,64.1121615 4.20985208,60.7778374 8.27,60.63 L83.73,60.63 C87.7901479,60.7778374 91.0052729,64.1121615 91.0052729,68.175 C91.0052729,72.2378385 87.7901479,75.5721626 83.73,75.72 L83.73,75.72 Z" id="Path"></path>
            <path d="M83.73,45.54 L8.27,45.54 C4.20985208,45.3921626 0.994727137,42.0578385 0.994727137,37.995 C0.994727137,33.9321615 4.20985208,30.5978374 8.27,30.45 L83.73,30.45 C87.7901479,30.5978374 91.0052729,33.9321615 91.0052729,37.995 C91.0052729,42.0578385 87.7901479,45.3921626 83.73,45.54 Z" id="Path"></path>
            <path d="M83.73,15.35 L8.27,15.35 C5.57979008,15.35 3.09393359,13.9147902 1.74882862,11.585 C0.403723645,9.25520991 0.403723645,6.38479009 1.74882862,4.05499997 C3.09393359,1.72520984 5.57979008,0.29 8.27,0.29 L83.73,0.29 C87.8887042,0.29 91.26,3.66129583 91.26,7.82 C91.26,11.9787042 87.8887042,15.35 83.73,15.35 Z" id="Path"></path>
        </g>
    </g>
</svg>